<mxfile host="app.diagrams.net" modified="2021-08-30T06:30:47.713Z" agent="5.0 (Windows NT 10.0; Win64; x64) AppleWebKit/537.36 (KHTML, like Gecko) Chrome/92.0.4515.159 Safari/537.36" etag="-9r-Ul73ZJ24hefZRrXV" version="14.9.8" type="github">
  <diagram id="tyylmcClc9Yyuzq1WWuP" name="Page-1">
    <mxGraphModel dx="545" dy="745" grid="1" gridSize="10" guides="1" tooltips="1" connect="1" arrows="1" fold="1" page="1" pageScale="1" pageWidth="827" pageHeight="1169" math="0" shadow="0">
      <root>
        <mxCell id="0" />
        <mxCell id="1" parent="0" />
        <mxCell id="LpRc2IrOZWLWQ6xRu7In-1" value="超级秒杀页面退出" style="rounded=1;whiteSpace=wrap;html=1;strokeWidth=2;fillWeight=4;hachureGap=8;hachureAngle=45;fillColor=#d5e8d4;sketch=1;strokeColor=#82b366;" vertex="1" parent="1">
          <mxGeometry x="140" y="20" width="200" height="70" as="geometry" />
        </mxCell>
        <mxCell id="LpRc2IrOZWLWQ6xRu7In-2" value="属性：title、&lt;br&gt;icon 图片&lt;br&gt;" style="rounded=1;whiteSpace=wrap;html=1;strokeWidth=2;fillWeight=4;hachureGap=8;hachureAngle=45;fillColor=#d5e8d4;sketch=1;strokeColor=#82b366;" vertex="1" parent="1">
          <mxGeometry x="180" y="540" width="220" height="50" as="geometry" />
        </mxCell>
        <mxCell id="LpRc2IrOZWLWQ6xRu7In-3" value="出礼盒挽留弹窗" style="rounded=1;whiteSpace=wrap;html=1;strokeWidth=2;fillWeight=4;hachureGap=8;hachureAngle=45;fillColor=#d5e8d4;sketch=1;strokeColor=#82b366;" vertex="1" parent="1">
          <mxGeometry x="140" y="150" width="200" height="70" as="geometry" />
        </mxCell>
        <mxCell id="LpRc2IrOZWLWQ6xRu7In-4" value="立即领取" style="rounded=1;whiteSpace=wrap;html=1;strokeWidth=2;fillWeight=4;hachureGap=8;hachureAngle=45;fillColor=#d5e8d4;sketch=1;strokeColor=#82b366;" vertex="1" parent="1">
          <mxGeometry x="400" y="150" width="130" height="70" as="geometry" />
        </mxCell>
        <mxCell id="LpRc2IrOZWLWQ6xRu7In-5" value="暂时放弃" style="rounded=1;whiteSpace=wrap;html=1;strokeWidth=2;fillWeight=4;hachureGap=8;hachureAngle=45;fillColor=#d5e8d4;sketch=1;strokeColor=#82b366;" vertex="1" parent="1">
          <mxGeometry x="570" y="150" width="130" height="70" as="geometry" />
        </mxCell>
        <mxCell id="LpRc2IrOZWLWQ6xRu7In-7" value="挽留弹窗承接页" style="rounded=1;whiteSpace=wrap;html=1;strokeWidth=2;fillWeight=4;hachureGap=8;hachureAngle=45;fillColor=#d5e8d4;sketch=1;strokeColor=#82b366;" vertex="1" parent="1">
          <mxGeometry x="400" y="280" width="170" height="60" as="geometry" />
        </mxCell>
        <mxCell id="LpRc2IrOZWLWQ6xRu7In-12" value="&lt;ul&gt;&lt;li&gt;商品名&lt;/li&gt;&lt;li&gt;商品价格&lt;/li&gt;&lt;li&gt;补贴价格&lt;/li&gt;&lt;li&gt;商品缩略图&lt;/li&gt;&lt;li&gt;跳转链接&lt;/li&gt;&lt;/ul&gt;" style="rounded=1;whiteSpace=wrap;html=1;strokeWidth=2;fillWeight=4;hachureGap=8;hachureAngle=45;fillColor=#d5e8d4;sketch=1;strokeColor=#82b366;" vertex="1" parent="1">
          <mxGeometry x="300" y="380" width="120" height="100" as="geometry" />
        </mxCell>
        <mxCell id="LpRc2IrOZWLWQ6xRu7In-14" value="抢低价" style="rounded=1;whiteSpace=wrap;html=1;strokeWidth=2;fillWeight=4;hachureGap=8;hachureAngle=45;fillColor=#d5e8d4;sketch=1;strokeColor=#82b366;" vertex="1" parent="1">
          <mxGeometry x="470" y="380" width="140" height="40" as="geometry" />
        </mxCell>
        <mxCell id="LpRc2IrOZWLWQ6xRu7In-15" value="暂时放弃" style="rounded=1;whiteSpace=wrap;html=1;strokeWidth=2;fillWeight=4;hachureGap=8;hachureAngle=45;fillColor=#d5e8d4;sketch=1;strokeColor=#82b366;" vertex="1" parent="1">
          <mxGeometry x="470" y="470" width="140" height="40" as="geometry" />
        </mxCell>
      </root>
    </mxGraphModel>
  </diagram>
</mxfile>
